<svg id="Layer_5" fill="#575757" enable-background="new 0 0 64 64" height="512" viewBox="0 0 64 64" width="512" xmlns="http://www.w3.org/2000/svg"><g><path d="m13 7c-3.309 0-6 2.691-6 6s2.691 6 6 6 6-2.691 6-6-2.691-6-6-6zm0 10c-2.206 0-4-1.794-4-4s1.794-4 4-4 4 1.794 4 4-1.794 4-4 4z"/><path d="m31 12h2v2h-2z"/><path d="m35 12h6v2h-6z"/><path d="m31 16h10v2h-10z"/><path d="m13 49h-8v6h8zm-2 4h-4v-2h4z"/><path d="m15 49h6v2h-6z"/><path d="m15 53h6v2h-6z"/><path d="m5 57h16v2h-16z"/><path d="m60 35h-16c-1.654 0-3 1.346-3 3v7h-4v-9.142c1.72-.447 3-1.999 3-3.858 0-1.858-1.28-3.411-3-3.858v-6.142h5c1.654 0 3-1.346 3-3v-5h4.09c.478 2.833 2.942 5 5.91 5 3.309 0 6-2.691 6-6 0-1.035-.263-2.009-.726-2.86l2.433-2.433-1.414-1.414-2.269 2.269c-1.066-.967-2.475-1.562-4.024-1.562-2.967 0-5.431 2.167-5.91 5h-4.09v-5c0-1.654-1.346-3-3-3h-12c-1.654 0-3 1.346-3 3v5h-2v-1.763l-2.625-.718c-.086-.229-.181-.458-.286-.685l1.35-2.366-3.908-3.908-2.366 1.35c-.227-.104-.455-.2-.685-.286l-.717-2.624h-5.526l-.718 2.625c-.229.086-.458.181-.685.286l-2.366-1.35-3.907 3.908 1.35 2.366c-.104.227-.2.455-.286.685l-2.625.717v5.526l2.625.718c.086.229.181.458.286.685l-1.35 2.366 3.908 3.908 2.366-1.35c.227.104.455.2.685.286l.717 2.624h1.763v16h-8c-1.654 0-3 1.346-3 3v16c0 1.654 1.346 3 3 3h18c1.654 0 3-1.346 3-3v-16c0-1.654-1.346-3-3-3h-8v-16h1.763l.718-2.625c.229-.086.458-.181.685-.286l2.366 1.35 3.908-3.908-1.35-2.366c.104-.227.2-.455.286-.685l2.624-.717v-1.763h2v5c0 1.654 1.346 3 3 3h5v6.142c-1.72.447-3 2-3 3.858 0 1.859 1.28 3.411 3 3.858v11.142h6v7c0 1.654 1.346 3 3 3h16c1.654 0 3-1.346 3-3v-16c0-1.654-1.346-3-3-3zm-5-26c.997 0 1.899.38 2.6.986l-2.6 2.6-1.293-1.293-1.414 1.414 2.707 2.707 3.753-3.753c.15.421.247.867.247 1.339 0 2.206-1.794 4-4 4s-4-1.794-4-4 1.794-4 4-4zm-33 52h-18c-.551 0-1-.448-1-1v-13h20v13c0 .552-.449 1-1 1zm1-17v1h-20v-1c0-.552.449-1 1-1h18c.551 0 1 .448 1 1zm0-29.763-2.193.6-.162.525c-.142.46-.334.922-.572 1.371l-.256.486 1.129 1.979-1.75 1.75-1.979-1.129-.486.256c-.449.237-.91.43-1.371.572l-.525.162-.598 2.191h-2.474l-.6-2.193-.525-.162c-.46-.142-.922-.334-1.371-.572l-.486-.256-1.979 1.129-1.75-1.75 1.129-1.979-.256-.486c-.237-.449-.43-.91-.572-1.371l-.162-.525-2.191-.598v-2.474l2.193-.6.162-.525c.142-.46.334-.922.572-1.371l.256-.486-1.129-1.977 1.75-1.75 1.979 1.129.486-.256c.449-.237.91-.43 1.371-.572l.525-.162.598-2.193h2.474l.6 2.193.525.162c.46.142.922.334 1.371.572l.486.256 1.979-1.129 1.75 1.75-1.129 1.979.256.486c.237.449.43.91.572 1.371l.162.525 2.193.6v2.472zm7-8.237h12c.551 0 1 .449 1 1v1h-14v-1c0-.551.449-1 1-1zm-1 13v-9h14v9c0 .551-.449 1-1 1h-12c-.551 0-1-.449-1-1zm5 13c0-1.103.897-2 2-2s2 .897 2 2-.897 2-2 2-2-.897-2-2zm10 5h16c.551 0 1 .448 1 1v1h-18v-1c0-.552.449-1 1-1zm16 18h-16c-.551 0-1-.448-1-1v-13h18v13c0 .552-.449 1-1 1z"/><path d="m51 43h-6v6h6zm-2 4h-2v-2h2z"/><path d="m53 43h6v2h-6z"/><path d="m53 47h6v2h-6z"/><path d="m45 51h14v2h-14z"/></g></svg>